/* XPM */
static char *_f33967606364e888939cb2d2820c42dHAEZbUqQnsNbzCC0[] = {
/* columns rows colors chars-per-pixel */
"50 50 178 2 ",
"   c None",
".  c #555D2F",
"X  c #565E33",
"o  c #5D653E",
"O  c #5E6640",
"+  c #616742",
"@  c #626945",
"#  c #666C4A",
"$  c #686E4C",
"%  c #686A46",
"&  c #6D7354",
"*  c #6F7558",
"=  c #71775A",
"-  c #72785C",
";  c #737354",
":  c #777D61",
">  c #797F63",
",  c #B66E3D",
"<  c #C54E00",
"1  c #C55400",
"2  c #CB5500",
"3  c #C65C00",
"4  c #CC5C00",
"5  c #D15A00",
"6  c #C66003",
"7  c #CC6101",
"8  c #D36301",
"9  c #C66213",
"0  c #CC6614",
"q  c #C6641C",
"w  c #C76626",
"e  c #CC6924",
"r  c #C8672A",
"t  c #D26D2D",
"y  c #D36B27",
"u  c #DC702F",
"i  c #C76A32",
"p  c #CA6B34",
"a  c #C76C38",
"s  c #C86E3C",
"d  c #C96731",
"f  c #D06F36",
"g  c #D8753C",
"h  c #E1783B",
"j  c #8D6E45",
"k  c #8E7A5D",
"l  c #8E7450",
"z  c #9B7F5F",
"x  c #967856",
"c  c #B77347",
"v  c #B5744B",
"b  c #A17C5A",
"n  c #A07B56",
"m  c #B77A56",
"M  c #8B7F64",
"N  c #877E64",
"B  c #967F62",
"V  c #C86F41",
"C  c #CA7449",
"Z  c #CE7647",
"A  c #D27543",
"S  c #D57948",
"D  c #C97853",
"F  c #D37C53",
"G  c #7A8066",
"H  c #7C856B",
"J  c #7E8C76",
"K  c #7B8D78",
"L  c #A5805D",
"P  c #B2805E",
"I  c #8F8167",
"U  c #80866E",
"Y  c #82886F",
"T  c #9D8061",
"R  c #9E866B",
"E  c #858A73",
"W  c #888D76",
"Q  c #808F78",
"!  c #8A8E7B",
"~  c #9F8C73",
"^  c #8E947E",
"/  c #90947E",
"(  c #A18363",
")  c #AF8363",
"_  c #A38569",
"`  c #A4896F",
"'  c #AC876A",
"]  c #B28262",
"[  c #B98A6F",
"{  c #B0876A",
"}  c #A28C73",
"|  c #A88E76",
" . c #B78F77",
".. c #BA8D74",
"X. c #A3927C",
"o. c #A8917A",
"O. c #BB927C",
"+. c #D5815C",
"@. c #CA8466",
"#. c #CB866A",
"$. c #CB886E",
"%. c #D48A6D",
"&. c #D68461",
"*. c #CC8C74",
"=. c #CD8F79",
"-. c #D78F72",
";. c #C19575",
":. c #C19778",
">. c #CC927B",
",. c #C0997A",
"<. c #D49176",
"1. c #D2937A",
"2. c #D8957B",
"3. c #D89277",
"4. c #8B9680",
"5. c #8B9A85",
"6. c #879884",
"7. c #919680",
"8. c #999F88",
"9. c #A49581",
"0. c #A89680",
"q. c #AC9D85",
"w. c #A79C87",
"e. c #B49782",
"r. c #BC9986",
"t. c #BC9C8A",
"y. c #B79B83",
"u. c #9BA38B",
"i. c #A8A389",
"p. c #BCA08E",
"a. c #A6AC93",
"s. c #A8AE95",
"d. c #BEA393",
"f. c #AFB79C",
"g. c #B4B99F",
"h. c #B0B69C",
"j. c #BFADA1",
"k. c #B2BDA2",
"l. c #B8BFA4",
"z. c #CD9682",
"x. c #CE9986",
"c. c #CE9D8B",
"v. c #D29781",
"b. c #D49983",
"n. c #DA9A82",
"m. c #D49E8B",
"M. c #D89F89",
"N. c #CFA08F",
"B. c #D5A18D",
"V. c #DAA28E",
"C. c #CFA393",
"Z. c #C3A993",
"A. c #C8A799",
"S. c #D1A394",
"D. c #D9A493",
"F. c #D5A897",
"G. c #DBA896",
"H. c #D0A698",
"J. c #D2AA9C",
"K. c #DBAC9C",
"L. c #C1AEA2",
"P. c #D2AEA1",
"I. c #DCAFA1",
"U. c #C2B1A5",
"Y. c #D4B1A5",
"T. c #DBB2A4",
"R. c #D4B4A9",
"E. c #D9B6AA",
"W. c #D9B8AD",
"Q. c #D6B8AD",
"!. c #D9BAB0",
"~. c #BBC2A6",
"^. c #BEC5A8",
"/. c #C0C8AB",
"(. c #C3CDAF",
"). c #C0C7AA",
"_. c #C5CFB1",
"`. c #CCD4B5",
/* pixels */
"u.s.s.s.s.s.s.s.a.                                                                a.a.a.a.a.a.a.a.  ",
"s.`.^.^.^./.^.^.`.                              ^ /                               `.^.^.^.^.^.^.`.a.",
"s.l.g.g.k.k.l.g.k.                          ^   ^ ^   ^                           l.g.g.f.k.g.g.~.s.",
"a._.k.k.k.k.k.k.`.                          ^   / /   /     4.                    _.k.k.~.f.~.k.(.a.",
"  q.;.;.Z.O.;.:.i.                /     ^   ^   ^ ^   /         /                 i.,.O.,.Z.,.;.i.u.",
"  v 8 3 =.d 2 y               ^   ^         /   ^ ^   /         /   ^               t 4 e 1.6 8 v   ",
"  O.n.>.J.z.*.n.      ^   ^   /   ^         /   / ^   ^         ^   ^   /           3.#.=.H.$.%...  ",
"  j.I.z.c.x.c.R.o.6.  ^   /   /   /         /   / ^   /         ^   /   /   ^     9.E.S.c.C.c.Y.L.  ",
"  d.+.1 9 3 s z.b 6.  ^   ^   ^   ^         /   ^ ^   ^         ^   ^   /   ^   4.( b.C 3 w 3 F Z.  ",
"  L.G.*.*.*.z.Y.| ^   ^   ^   ^   ^         /   ^ /   /         ^   ^   ^   /   ^ } J.>.#.$.#.M.L.  ",
"  r.G.c.Y.C.c.B.w.^   /   7.  /   7.        /   ^ ^   /         ^   7.  /   7.  4.w.J.H.A.R.C.I.d.  ",
"  v 8 3 >.i 3 6 l K % W + W @ W # Y = > H & E . ^ ^ X W = H H = W # W @ W @ W $ E k 6 3 r >.3 8 c   ",
"  ..2.*.H.>.*.*.k H & E # E # E & U * G H & E o ^ ^ o E & G G & U # E @ E @ E # H k @.@.*.H.#.%.[   ",
"  U.I.x.c.c.C.W.0.    7.      7.                ^ /                 7.      7.    w.W.H.N.C.c.P.U.  ",
"  d.F 1 3 1 i b.z     ^       ^       ^ ^       ^ ^       ^ ^       /       /     z v.V 1 3 1 F Z.  ",
"  L.K.*.>.>.z.T.|     /       /         /       ^ ^       ^ ^       /       /     } P.z.$.*.$.M.L.  ",
"  t.K.C.Y.S.c.F.9.    /       /         ^       / ^       ^ ^       ^   !   7.    9.J.H.C.R.C.K.d.  ",
"  , 5 1 *.w 1 4 (     /       /         ^       / ^       7.^       /       /     R 4 1 q >.3 3 ,   ",
"  O.n.>.J.x.=.b.X.    /       ^         ^       ^ 7.      / ^       /   !   4.    X.1.*.>.H.*.3...  ",
"  j.I.x.c.x.c.E.X.    ^       ^         7.      ^ /       4.^       /   !   7.    X.T.S.c.C.c.K.L.  ",
"  d.F < 3 1 w v.n     7.      /         ^       / ^       ^ /       /   !   /     T b.s 1 3 1 F A.  ",
"  U.K.>.z.>.c.E.}     /       ^       ^ /       ^ ^       7.^       /       4.    } Y.x.*.>.$.S.L.  ",
"  r.V.z.P.c.z.B.X.    /       /         ^       8.8.      / /       /       7.    X.F.c.c.J.c.B.t.  ",
"  m A s x.D i Z |     /       /         ^     h.l.~.h.    4.^       /       /     } Z V D c.C Z m   ",
"  v 8 3 >.a 3 e _     /       /         7.      a.a.      7.^       /       /     R 0 3 w >.3 7 v   ",
"  t.K.m.Y.C.m.J.9.    ^       /         ^       ^ !       ^ ^       /   !   4.    X.S.x.c.Y.c.V.r.  ",
"  L.D.#.*.$.>.P.}     /       /         7.  !   ^ ^       4.^       ^   ^   ^     } Y.x.*.>.*.D.L.  ",
"  d.+.1 3 3 p b.b     ^       /         ^       ^ ^       ^ ^       ^   !   ^     T b.s 1 6 1 D Z.  ",
"  U.T.m.C.C.C.!.X.    /       /         7.      ^ ^       4./       ^       /     X.Q.C.x.c.x.I.U.  ",
"  ..3.*.J.>.$.<.X.    /       /         ^       / /       / /       ^   !   /     X.v.>.z.P.>.b.O.  ",
"  v 8 6 >.s 3 e _     /       /         /       ^ ^       ^ /       ^   !   ^     R 0 3 w >.3 5 c   ",
"  t.D.c.P.c.c.S.9.    7.      4.      ^ ^       ^ /       / /       /       /     X.m.x.x.P.x.M.r.  ",
"  j.D.#.$.$.>.T.`     ^       /         ^       / /       4./       ^   !   7.    } Y.b.*.=.*.F.L.  ",
"  d.&.3 q 6 s b.b     /       /         /       ^ ^       ^ /       /   !   4.    T v.V 3 9 1 F Z.  ",
"  L.I.c.C.N.C.E.X.    7.      ^       ^ ^       / ^       7./       /       /     X.R.S.x.c.x.F.U.  ",
"  ..2.*.J.>.*.1.X.    ^       /         ^       / ^       ^ /       ^   !   ^     9.b.z.x.P.x.b.O.  ",
"  v 5 4 >.i 1 0 _     ^       ^       / ^       ^ ^       ^ 4.      /       /     ~ 4 1 9 =.3 2 c   ",
"  t.G.x.Y.N.c.F.X.    ^       ^       ^ ^       ^ /       ^ ^       ^       /     ~ B.x.c.P.x.M.r.  ",
"  L.D.*.*.*.>.T.o.    7.      7.                / ^                 7.      7.    X.Y.m.=.z.>.F.U.  ",
"  d.+.1 3 3 i z.j K ; W & W $ W * Y = H U * E o ^ ^ # E - U U - E * ! & W & W = K l >.a < 3 < S d.  ",
"  L.T.c.C.C.S.Y.I H # E + W + E # Y = G H & W . ^ ^ X W * G G * E @ E O W + E # H I Y.S.c.N.x.I.U.  ",
"  O.2.=.J.>.*.1.o.6.  /   /   /   7.        7.  ^ /   ^         ^   ^   ^   ^   ^ X.b.>.z.P.>.b.O.  ",
"  c 5 3 >.w 1 3 _ 6.  /   /   /   ^     ^   ^   ^ ^   ^         /   7.  ^   /   5.` 4 1 3 >.1 2 ,   ",
"  t.K.c.Y.C.N.C.I H @ E o E o E @ H & : > $ E . W ^ X E & : : & U @ E o E O E @ H N N.c.N.Y.c.D.c.  ",
"  j.V.#.*.$.>.J.T Q   !   ^   W   W   E E   ^   ^ ^   W   Y E > W   W   ^   W & E B J.x.*.>.*.S.L.  ",
"  d.F 1 3 3 i z.L 5.  7.  7.  7.  7.        ^   ^ ^   7.        /   7.  /   /   6.( v.a 1 3 1 S Z.  ",
"  L.E.S.H.H.H.Q.9.!   ^   ^   /   /         ^   ^ ^   ^         ^   /   ^   ^   ^ 9.Q.H.c.C.N.I.U.  ",
"  ..%.#.H.*.@.@.o.6.  ^   ^   ^   ^         ^   / ^   ^         /   /   ^   ^   ^ X.=.*.=.J.*.=...  ",
"  m h f V.F t S _ 6.  /   /   ^   ^         /   ^ ^   /         /   ^   ^   /   6.` g t A M.p u m   ",
"  ` ) ) e.{ P {                                                                     ] P ] e.] ] '   "
};
