/* XPM */
static char *_94bf9a3df524f60b1c45e2110203d63OdK1vFqQTj18L6z7[] = {
/* columns rows colors chars-per-pixel */
"50 50 181 2 ",
"   c None",
".  c #6B795D",
"X  c #757A5E",
"o  c #787C5F",
"O  c #767D61",
"+  c #797E64",
"@  c #B66E3A",
"#  c #C54E00",
"$  c #C55400",
"%  c #CD5600",
"&  c #C65B00",
"*  c #CB5C01",
"=  c #D25D00",
"-  c #C76003",
";  c #C6610C",
":  c #CC6400",
">  c #D46400",
",  c #C66214",
"<  c #CD6615",
"1  c #C6631A",
"2  c #CD6419",
"3  c #CE681C",
"4  c #D4661B",
"5  c #C76524",
"6  c #CB6523",
"7  c #C66729",
"8  c #CB6927",
"9  c #D76A21",
"0  c #D56E2F",
"q  c #C76C36",
"w  c #C86A36",
"e  c #C76D3A",
"r  c #C86E3E",
"t  c #CD703F",
"y  c #D5733A",
"u  c #E07536",
"i  c #8B7655",
"p  c #9C7D5D",
"a  c #957550",
"s  c #B27245",
"d  c #B87243",
"f  c #B37549",
"g  c #B8744A",
"h  c #AE7856",
"j  c #A47D5D",
"k  c #B37851",
"l  c #BA7850",
"z  c #B47E5C",
"x  c #B77B57",
"c  c #907D61",
"v  c #9A7F62",
"b  c #A47F61",
"n  c #C77042",
"m  c #C97045",
"M  c #C9744B",
"N  c #CE7A4E",
"B  c #DE7940",
"V  c #D1774A",
"C  c #D67848",
"Z  c #D27647",
"A  c #C97F5E",
"S  c #C87A56",
"D  c #D37C53",
"F  c #D37F59",
"G  c #6E8168",
"H  c #728166",
"J  c #7A8066",
"K  c #74856D",
"L  c #7E836A",
"P  c #798971",
"I  c #758B74",
"U  c #B4805F",
"Y  c #81856D",
"T  c #85896F",
"R  c #8B846B",
"E  c #9F8466",
"W  c #93876D",
"Q  c #9C866B",
"!  c #9D896F",
"~  c #958164",
"^  c #838771",
"/  c #848972",
"(  c #8A8D74",
")  c #9D8B74",
"_  c #9D8E79",
"`  c #8A9079",
"'  c #9E927D",
"]  c #A48263",
"[  c #A5866B",
"{  c #A5886E",
"}  c #AC8567",
"|  c #B38262",
" . c #B6886C",
".. c #BB8A6F",
"X. c #A78D76",
"o. c #A78E78",
"O. c #B48E76",
"+. c #B38F78",
"@. c #BB8C73",
"#. c #A5927C",
"$. c #A9937E",
"%. c #BF9574",
"&. c #B7927B",
"*. c #BB937D",
"=. c #BF997A",
"-. c #CB8365",
";. c #CA866B",
":. c #CB896E",
">. c #D78663",
",. c #D78866",
"<. c #D68B6C",
"1. c #D88A69",
"2. c #CC8D74",
"3. c #CC8F78",
"4. c #D38F73",
"5. c #C19575",
"6. c #CD927C",
"7. c #C09A7E",
"8. c #D69070",
"9. c #D5977E",
"0. c #DA967B",
"q. c #9F9381",
"w. c #A49481",
"e. c #AA9582",
"r. c #A19885",
"t. c #AA9A87",
"y. c #B59680",
"u. c #BD9682",
"i. c #BB9985",
"p. c #BA9D8B",
"a. c #B29F83",
"s. c #9AA38C",
"d. c #ABA186",
"f. c #A1A78F",
"g. c #A0A88D",
"h. c #A8A48A",
"j. c #BFA08F",
"k. c #A5AC93",
"l. c #A8AE95",
"z. c #BBA494",
"x. c #B5B99E",
"c. c #BDAEA2",
"v. c #BEB0A5",
"b. c #B1BEA4",
"n. c #CD9682",
"m. c #CE9985",
"M. c #CE9D8B",
"N. c #D19781",
"B. c #D49A84",
"V. c #D99B83",
"C. c #D19E8B",
"Z. c #D99E89",
"A. c #CFA08F",
"S. c #D5A18E",
"D. c #D9A28D",
"F. c #C0A594",
"G. c #CFA393",
"H. c #CFA89B",
"J. c #C2A992",
"K. c #D2A494",
"L. c #DAA694",
"P. c #D5A896",
"I. c #DCA896",
"U. c #D0A799",
"Y. c #D2AB9D",
"T. c #DCAC9C",
"R. c #C2AFA3",
"E. c #D2AEA1",
"W. c #C3B1A5",
"Q. c #D3B1A5",
"!. c #DCB3A5",
"~. c #D5B5A9",
"^. c #DCB6A9",
"/. c #DAB9AD",
"(. c #BAC1A5",
"). c #BCC3A6",
"_. c #BEC6A9",
"`. c #C2CDAF",
"'. c #C5CEB1",
"]. c #C7D1B3",
"[. c #CBD3B5",
/* pixels */
"  l.l.l.k.h.k.k.l.                                                                k.k.k.k.k.k.k.k.  ",
"k.[.b.`.`.`.`.(.[.s.                                                              [.(.(._.).).b.[.l.",
"k.b.x.x.x.x.x.x.(.                                                                (.x.x.x.x.x.x.(.l.",
"k.'.b.b.x.b.b.x.].k.                                                              '.b.b.b.b.b.b.'.l.",
"  a.5.%.J.=.%.5.d.                                                                h.5.5.7.J.%.5.a.s.",
"  h 4 * 3.m $ 0 h                                                                   y - e 6.5 4 k   ",
"  +.0.2.U.n.2.0.O.                                                                  8.-.2.U.;.<. .  ",
"  c.!.m.M.M.C./.e.                                                                #.~.U.M.K.M.!.W.  ",
"  z.1.$ ; & 7 9.]                                                                 Q 6.m & 1 & >.F.  ",
"  c.T.:.2.2.6.Q.o.                                                                ) H.6.-.;.-.B.R.  ",
"  p.T.S.Q.H.G.K.t.                                                                r.H.H.H.Q.G.T.F.  ",
"  f > $ 3.r $ * p I T (                                                       / P ~ & & 7 6.- * d   ",
"  O.0.:.U.6.:.2.v . o X O O J                                         + O + X X . ~ ;.;.2.G.;.<...  ",
"  c.!.C.G.C.G./.t.          ^                                         /           w.~.G.A.U.A.!.W.  ",
"  z.,.# $ $ ; B.j                                                                 ] B.r $ & $ D F.  ",
"  c.T.2.6.3.6.^.X.                                                                ) E.6.;.2.;.D.R.  ",
"  p.!.C.E.U.M.T.t.                                                                q.Y.K.G.Q.G.Y.F.  ",
"  s = $ 3.q $ * b                                                                 ! : $ 7 6.- * d   ",
"  &.V.2.H.m.2.B.o.                                                                _ 8.:.3.U.:.<.@.  ",
"  c.!.m.M.M.M./.e.                                                                ' ~.K.M.G.M.T.R.  ",
"  z.1.# $ & , B.j                                                                 v B.m & ; $ >.F.  ",
"  c.T.2.6.6.n.^.o.                                                                ) E.n.:.:.;.S.W.  ",
"  i.I.B.E.M.m.K.$.                                                                ' P.M.M.Q.M.L.F.  ",
"  z C r m.A w V [                                                                 ) N m S M.M Z x   ",
"  k > * 2.n $ 3 ]                                                                 Q 3 $ 7 3.- * g   ",
"  i.I.m.Q.G.M.P.e.                                                                ' S.m.m.Q.m.Z.n.  ",
"  c.T.2.3.2.6.!.X.                                                                _ Q.C.6.6.6.L.v.  ",
"  z.1.$ & & 1 B.j                                                                 p m.t $ - $ D z.  ",
"  W.^.m.M.M.G./.$.                                                                _ ~.S.6.n.6.P.W.  ",
"  &.V.6.Y.m.2.B.$.                                                                q.B.m.M.E.m.S.u.  ",
"  k > $ 3.n $ < ]                                                                 Q < & 7 6.& = g   ",
"  i.D.n.E.M.n.S.e.                                                                ' B.6.n.Y.6.V.*.  ",
"  v.T.2.3.3.6.^.o.          L                                         L           _ Q.S.n.m.6.P.W.  ",
"  z.1.$ - $ 5 B.j         + /                                         ( +         v B.r $ & $ D F.  ",
"  c.!.m.M.M.M./.$.      Y L /                                         / / L       _ Q.C.6.m.6.I.W.  ",
"  *.D.6.E.M.6.V.$.      L   L                                         L   L J     #.K.m.M.E.M.K.i.  ",
"  f = $ 2.e $ * b   ( O   L `                                           J   + /   Q * $ ; 3.$ % @   ",
"  i.L.B.E.M.n.K.e.  +   L Y                                             / L   +   #.C.n.m.Y.6.Z.n.  ",
"  c.T.3.n.6.n.^.$.. ( / J                                                 L Y   . o.Q.C.n.m.n.T.W.  ",
"  z.>.# $ $ & N.a K   +                                                     +   K i 6.q # $ # V z.  ",
"  c.!.M.A.M.G.Q.)   J T                                                       +   W Q.G.n.M.n.P.v.  ",
"  *.Z.3.Y.m.6.B.e.H Y                                                         T H w.B.m.m.E.m.S.m.  ",
"  s = $ 2.q # $ ] H                                                             H Q $ $ ; 3.$ % @   ",
"  i.I.m.Q.G.M.A.W                                                                 R m.m.M.E.m.D.i.  ",
"  c.T.2.6.3.6.E.{                                                                 ! E.M.6.n.6.I.R.  ",
"  z.,.# & $ 1 9.]                                                                 E 6.e $ & $ D F.  ",
"  c.^.C.A.M.G.~.e.                                                                ' Q.G.m.m.n.P.W.  ",
"  &.0.2.H.m.2.2.$.                                                                ' n.6.m.E.n.B.u.  ",
"  z u 6 Z.>.< y }                                                                 [ y 2 t B.8 9 l   ",
"  [ | z &. .z |                                                                     | z | i.U z }   "
};
