/* XPM */
static char *c52950283e23459deb819b2f64f1abfcb30jao64e2vsc0zB[] = {
/* columns rows colors chars-per-pixel */
"50 50 220 2 ",
"   c black",
".  c #1D0000",
"X  c #031A00",
"o  c #1A1A05",
"O  c #130B15",
"+  c #220100",
"@  c #2A0E03",
"#  c #340500",
"$  c #281806",
"%  c #361B07",
"&  c #261511",
"*  c #351C11",
"=  c #002300",
"-  c #0A2B03",
";  c #162905",
":  c #1C240C",
">  c #1C2C0C",
",  c #063307",
"<  c #1C330D",
"1  c #19380E",
"2  c #182C11",
"3  c #1E3210",
"4  c #232609",
"5  c #39220B",
"6  c #24360F",
"7  c #243A0F",
"8  c #2C2217",
"9  c #392616",
"0  c #342219",
"q  c #263C11",
"w  c #293D12",
"e  c #283919",
"r  c #343114",
"t  c #231C23",
"y  c #2A262A",
"u  c #362A25",
"i  c #3B3323",
"p  c #2A2A31",
"a  c #373438",
"s  c #520F05",
"d  c #4A1B0B",
"f  c #49210D",
"g  c #55210D",
"h  c #5B220C",
"j  c #472717",
"k  c #562A14",
"l  c #4A331A",
"z  c #59331B",
"x  c #63250C",
"c  c #6A2709",
"v  c #752705",
"b  c #7B2D0D",
"n  c #6F350A",
"m  c #7F3607",
"M  c #662B12",
"N  c #772F10",
"B  c #673617",
"V  c #783A19",
"C  c #422B23",
"Z  c #483928",
"A  c #553824",
"S  c #4A3B35",
"D  c #533E34",
"F  c #663C22",
"G  c #753E22",
"H  c #2A4117",
"J  c #34451B",
"K  c #284522",
"L  c #364A26",
"P  c #3F5026",
"I  c #6D4409",
"U  c #7B421C",
"Y  c #4B432C",
"T  c #5A4628",
"R  c #5B442C",
"E  c #415429",
"W  c #4C4435",
"Q  c #544333",
"!  c #5A4A38",
"~  c #585239",
"^  c #634A2A",
"/  c #744527",
"(  c #7B4624",
")  c #7E512E",
"_  c #6E4D39",
"`  c #754B33",
"'  c #665437",
"]  c #775738",
"[  c #7A633B",
"{  c #7C633A",
"}  c #3B3D44",
"|  c #3D4249",
" . c #48464A",
".. c #554B4A",
"X. c #5B514B",
"o. c #4C4D51",
"O. c #575659",
"+. c #635A44",
"@. c #68584A",
"#. c #745748",
"$. c #6E6355",
"%. c #776857",
"&. c #5F6267",
"*. c #616266",
"=. c #63656A",
"-. c #67696D",
";. c #736C68",
":. c #822D08",
">. c #84310E",
",. c #8A350B",
"<. c #9A380C",
"1. c #883512",
"2. c #963B12",
"3. c #993A11",
"4. c #A33A08",
"5. c #AB3E0E",
"6. c #A73F11",
"7. c #86430F",
"8. c #964B02",
"9. c #834518",
"0. c #954B16",
"q. c #925217",
"w. c #B5410E",
"e. c #B9430E",
"r. c #AA4212",
"t. c #B64411",
"y. c #AC5311",
"u. c #BA6218",
"i. c #854A27",
"p. c #924C20",
"a. c #8C532B",
"s. c #98562A",
"d. c #875634",
"f. c #8A5C39",
"g. c #985C35",
"h. c #A35D2E",
"j. c #A35F33",
"k. c #9C622B",
"l. c #836A3B",
"z. c #97623B",
"x. c #AA662A",
"c. c #A66539",
"v. c #AC6A3C",
"b. c #B66D37",
"n. c #BD743A",
"m. c #C66917",
"M. c #C27638",
"N. c #865E44",
"B. c #856445",
"V. c #A86C41",
"C. c #A97145",
"Z. c #B47543",
"A. c #BA7A47",
"S. c #836D63",
"D. c #847268",
"F. c #89776C",
"G. c #887B76",
"H. c #C77E46",
"J. c #B68A57",
"K. c #8B817C",
"L. c #B99562",
"P. c #CA8447",
"I. c #CB854B",
"U. c #D08447",
"Y. c #D48A4C",
"T. c #DA8E4E",
"R. c #DC914F",
"E. c #CA8752",
"W. c #D48C51",
"Q. c #DA8E51",
"!. c #DC9252",
"~. c #D89258",
"^. c #DE9A5D",
"/. c #E29654",
"(. c #E69A5A",
"). c #E89B59",
"_. c #DE9C62",
"`. c #DC9F69",
"'. c #CC9B74",
"]. c #E39F61",
"[. c #C9A26B",
"{. c #D6A56D",
"}. c #D1A87A",
"|. c #E2A166",
" X c #E3A56B",
".X c #EAAB70",
"XX c #7C7E84",
"oX c #7E8187",
"OX c #858588",
"+X c #948C88",
"@X c #9D9289",
"#X c #A59B93",
"$X c #ADA9A7",
"%X c #B6AEA8",
"&X c #BEB2A4",
"*X c #BAB2AD",
"=X c #BAB5B3",
"-X c #BBB7B5",
";X c #C1B5A5",
":X c #C4B8A9",
">X c #C5BCB4",
",X c #CBC2B5",
"<X c #CDC4BB",
"1X c #D3C9BD",
"2X c #CAC7C5",
"3X c #D3CDC9",
"4X c #D8D5D3",
"5X c #DDDCDB",
"6X c #E2DDD8",
"7X c #E3E3E3",
"8X c #E9E5E1",
"9X c #EEEBE5",
"0X c #EDEAE9",
"qX c #F0EDE7",
"wX c #F1EEEA",
"eX c #F4F1EE",
"rX c #F5F3F2",
"tX c #F8F6F4",
"yX c #FBFAF7",
"uX c #FFFFFF",
/* pixels */
"uXuXuXuXuXuXuXuXuXuXuXuXuXuXuXuXuXuXuXuXuXuXuXuXuXuXuXuXuXuXuXuXuXuXuXuXuXuXuXuXuXuXuXuXuXuXuXuXuXuX",
"uXuXuXuXuXuXuXuXuXuXuXuXuXuXuXuXuXuXuXuXuXuXuXuXuXuXuXuXuXuXuXuXuXuXuXuXuXuXuXuXuXuXuXuXuXuXuXuXuXuX",
"uXuXuXuXuXuXuXuXuXuXuXuXuXuXuXuXuXuXuXuXuXuXuXuXuXuXuXuXuXuXuXuXuXuXuXuXuXuXuXuXuXuXuXuXuXuXuXuXuXuX",
"uXuXuXuXuXuXuXuXuXuXuXuXuXuXuXuXuXuXuXuXuXuXuXuXuXuXuXuXuXuXuXuXuXuXuXuXuXuXuXuXuXuXuXuXuXuXuXuXuXuX",
"uXuXuXuXuXuXuXuXuXuXuXuXuXuXuXuXuXuXuXuXuXuXuXuXeX7X7XqXuXuXuXuXuXuXuXuXuXuXuXuXuXuXuXuXuXuXuXuXuXuX",
"uXuXuXuXuXuXuXuXuXuXuXuXuXuXuXuXuXuXuXuXuXeX$XF.B.f.f.B.D.*XyXuXyXuXuXuXuXuXuXuXuXuXuXuXuXuXuXuXuXuX",
"uXuXuXuXuXuXuXuXuXuXuXuXuXuXuXuXuXuXyXuX5X#.x.P.Q.!.!.!.U.q.G.rXuXuXuXuXuXuXuXuXuXuXuXuXuXuXuXuXuXuX",
"uXuXuXuXuXuXuXuXuXuXuXuXuXuXuXuXuXuXuX7X_ P.(.!.!.!.R.R./.).x.+XuXuXuXuXuXuXuXuXuXuXuXuXuXuXuXuXuXuX",
"uXuXuXuXuXuXuXuXuXuXuXuXuXuXuXuXuXuXuXG.M.(.T.T.!.!.!.!.R.R.(.d.7XuXuXuXuXuXuXuXuXuXuXuXuXuXuXuXuXuX",
"uXuXuXuXuXuXuXuXuXuXuXuXuXuXuXuXuXuX7Xz.(.!././.!.!.!././.!.).x.2XuXuXuXuXuXuXuXuXuXuXuXuXuXuXuXuXuX",
"uXuXuXuXuXuXuXuXuXuXuXuXuXuXuXuXyXuX-Xk.c.s.v.I.!.!.!.I.n.h.C.k.*XuXuXuXuXuXuXuXuXuXuXuXuXuXuXuXuXuX",
"uXuXuXuXuXuXuXuXuXuXuXuXuXuXuXuXuX0XN.i.v 4.4.3.z.(.v.2.4.4.v F B.0XuXuXuXuXuXuXuXuXuXuXuXuXuXuXuXuX",
"uXuXuXuXuXuXuXuXuXuXuXuXuXuXuXyXuX$Xk.E.M x >.v g c.x v b M M V.i.2XuXyXuXuXuXuXuXuXuXuXuXuXuXuXuXuX",
"uXuXuXuXuXuXuXuXuXuXuXuXyXuXuXuX2XB z.Q.h.k @ j B ` A j @ k c.Q.d.#.6XuXyXuXuXuXuXuXuXuXuXuXuXuXuXuX",
"uXuXuXuXuXuXuXuXuXuXuXuXuXuXuX%X# W.) V.H.i.p.H.Y.&X'.H.s.i.M.g.d.I.D 4XuXuXyXuXuXuXuXuXuXuXuXuXuXuX",
"uXuXuXuXuXuXuXuXuXuXuXuXuX9XK.  : d.G k Z.j.G n.M.T.Q.A.( a.j.h / V.$ o #XtXuXuXuXuXuXuXuXuXuXuXuXuX",
"uXuXuXuXuXuXuXuXuXyXuXyX$Xi X J e = h r.M h >.:.1.i.9.v b x h 6.h X e w   X.2XuXuXuXuXuXuXuXuXuXuXuX",
"uXuXuXuXuXuXuXuXuXuX5X%.q.9 e q w 2 >.r.>.5.e.t.3.h <.e.5.5.b 3.,.2 H 7 J -   G.wXuXuXuXuXuXuXuXuXuX",
"uXuXuXuXuXuXuXyXuX-X/ P.].C.X w q : 2.>.5.<.b x h N h x >.5.5.b 3.5 1 7 w : C.J.%.5XuXyXuXuXuXuXuXuX",
"uXuXuXuXuXuXuXuX>XI !./.R.(.z.= q 5 >.>.b d c >.4.e.3.b h d 1.>.,.f < H = z.]..XI.#.0XuXuXuXuXuXuXuX",
"uXuXuXuXuXuXuX7X` !./.!.!.!.Q.T - 9 N d x <.e.e.e.5.e.e.5.<.h d N f < , / |._.Q.).n.K.uXuXuXuXuXuXuX",
"uXuXuXuXuXyXuX2Xq./.T.!.!.T./.z.X 5 N b 5.w.5.e.e.e.e.5.5.e.6.b N 5 < : J. X_.^.R./.n 4XuXuXuXuXuXuX",
"uXuXuXuXuXuXuX=X8./.R.R.!.R.!.v.= > >.w.w.w.w.e.e.e.5.e.5.e.5.5.>.$ - ^ `.(.^.|.^.!.:.=XuXyXuXuXuXuX",
"uXuXuXuXuXuXuX3Xm !.R.!.!.!.(.d.= 3 g 5.w.w.w.5.e.5.e.e.e.5.e.5.g > H #.^.!.!.^. X~.v *XuXuXuXuXuXuX",
"uXuXuXuXuXuXuXyXS.M./.!.T./.W.C 1 6 o b t.e.e.5.e.5.e.5.e.e.5.>.$ 6 L T T./.R.R.|.E./ 6XuXuXuXuXuXuX",
"uXuXuXuXuXuXuXtX#.0.T.Q.R.Y.( ; w q 3 $ b 5.e.e.e.e.5.5.e.5.:.* : e E r c.R.!.R.U.j.@.eXuXuXuXuXuXuX",
"uXuXuXuXuXyXuX-Xv b.Y./.T.M.i.> w q q : * x ,.4.5.5.5.6.2.c * o 6 w E e s.H.R./.P.v.U *XuXyXuXuXuXuX",
"uXuXuXuXuXuXuXD.8.H./.!.R./.W.9 1 q q q 4 o % h v N c x d o : 6 6 7 L ' W.!.R./. XH.x.D.uXuXuXuXuXuX",
"uXuXuXuXuXuX0X` s.E./.T.R.!.W.z > w w w q 6 < > : o ; ; : e P E P J ; ]  X_.|.`.|.E.c.] 0XuXyXuXuXuX",
"uXuXuXuXuXuX5XV i.A.)./.!.!.H.d o 6 < < 1 , < ; 4 $ ; 1 K L K K L L o F _.|.|.].).E.d.9.5XuXuXuXuXuX",
"uXuXuXuXuXuX5XU i.Z.A.f.` _ F D Z % f k z B f l.[.[.C.A a.i.B B B B @.#.V _ ] g.P.A.G 1.4XuXuXuXuXuX",
"uXuXuXuXuXuX0X` p.A X.a y p y u z u.m.u.m.m.i.' B.{.' ` M.m.m.m.m.y._ X.a a p } ..z i.i.5XuXuXuXuXuX",
"uXuXuXuXuXuXyXS.c O.o. .*.O.O.o.u B y.u.u.m.U R * Q 5 R b.m.u.u.,.( j O.=.o.O. .o. .V d.0XuXuXuXuXuX",
"uXuXuXuXuXuXuX%X& X. .OXXX*.o.S 0 d./ 7.0.0.F [.L.J.J.B.a.q.0.n z.J.& } O.&.XXoX . .j D.uXuXuXuXuXuX",
"uXuXuXuXuXuXuX3X& a -.oX=.a / A.I.f.A 8 9 9 0 l L.}.] 9 ! W i 8 f.d.V.z.C  .-.oX-.a + >XuXyXuXuXuXuX",
"uXuXuXuXuXuXuX6X& a *.=.} A !.).).V.& ~ ~ ~ $.$.X.@.@.@.' $.$.' @ A.).).A.y o.=.-.a u 0XuXuXuXuXuXuX",
"uXuXuXuXuXuXuXuX+Xt =.O.t C.T.g.v.F W ' ~ +.%.@.Y l ! Q Z W ;.%.Y ( v.f.W.f.p O.=.y G.uXuXuXuXuXuXuX",
"uXuXuXuXuXuXyXuX0XS | } A T./.Z.B C +.~ $.+.Y @ $X,X4X-X5 ~ +.$.@.9 G Z./.U.u  .o.. 4XuXuXuXuXuXuXuX",
"uXuXuXuXuXuXuXuXuX-X. } a.U.A.U.( i Y W +.W   $XuXuXuXuX>X. Z Z Y 9 c.T.A.U.( | O +XuXuXuXuXuXuXuXuX",
"uXuXuXuXuXuXuXuXuXuX+X  g./.a.M & 0 8 Z Z u $XuXuXyXuXyXuX*X. u 0 8 k V g./.g.  @.tXuXuXuXuXuXuXuXuX",
"uXuXuXuXuXuXuXuXuXuXrX;.+ 8.c.B ^ [ [ [ ' +.tXuXuXuXuXyXuX8X@ T ] { ' V n.y.s X.7XuXyXuXuXuXuXuXuXuX",
"uXuXuXuXuXuXuXuXuXuXuXtX3X#XS * T T ^ T 5 @XuXuXuXuXuXuXuXqXW l T T Y % ! G.=XtXuXuXuXuXuXuXuXuXuXuX",
"uXuXuXuXuXuXuXuXuXuXuXuXuXuX%XC z T T T i 9XuXuXyXyXuXyXyXuX*X@ T T ^ z D.rXuXuXuXuXuXuXuXuXuXuXuXuX",
"uXuXuXuXuXuXuXuXuXuXuXuXuX2XZ { l.l.{ ^ i :X<X1X3X<X,X,X,X3X@Xf { l.l.l.T $.qXyXuXuXuXuXuXuXuXuXuXuX",
"uXuXuXuXuXuXuXuXuXuXuX6X>XF.@ A Z A S S D.;X;X;X,X,X;X;X&X:X#XY Q T D D Q % #X,XwXuXuXuXuXuXuXuXuXuX",
"uXuXuXuXuXuXuXuXuXuXuXtX8X6X1X:X:X&X&X;X;X;X;X;X;X>X;X;X;X;X;X;X&X&X:X:X>X3X6X9XyXuXuXuXuXuXuXuXuXuX",
"uXuXuXuXuXuXuXuXuXuXuXuXuXuXuXuXuXyXyXeXeXwX9X9X9X9X9X9X9XwXwXeXrXyXyXuXuXuXuXuXuXuXuXuXuXuXuXuXuXuX",
"uXuXuXuXuXuXuXuXuXuXuXuXuXuXuXuXuXuXuXuXuXuXuXuXuXuXuXuXuXuXuXuXuXuXuXuXuXuXuXuXuXuXuXuXuXuXuXuXuXuX",
"uXuXuXuXuXuXuXuXuXuXuXuXuXuXuXuXuXuXuXuXuXuXuXuXuXuXuXuXyXuXuXuXuXuXuXuXuXuXuXuXuXuXuXuXuXuXuXuXuXuX",
"uXuXuXuXuXuXuXuXuXuXuXuXuXuXuXuXuXuXuXuXuXuXuXuXuXuXuXuXuXuXuXuXuXuXuXuXuXuXuXuXuXuXuXuXuXuXuXuXuXuX"
};
