/* XPM */
static char *_8df8cbbedd94b5b9607814381c4a0c39We6zSeiB60DxKuu[] = {
/* columns rows colors chars-per-pixel */
"50 50 221 2 ",
"   c None",
".  c #005F18",
"X  c #006E1B",
"o  c #096B1F",
"O  c #00731D",
"+  c #15741E",
"@  c #19691E",
"#  c #27771F",
"$  c #006824",
"%  c #1C6326",
"&  c #1D6A27",
"*  c #017323",
"=  c #007B24",
"-  c #0B7D26",
";  c #017C2A",
":  c #127425",
">  c #1C7423",
",  c #147D26",
"<  c #1D7B25",
"1  c #167F28",
"2  c #1A7F28",
"3  c #226D26",
"4  c #226C28",
"5  c #266628",
"6  c #247422",
"7  c #2A7523",
"8  c #237C25",
"9  c #2B7B23",
"0  c #247228",
"q  c #2D732A",
"w  c #2C7B2B",
"e  c #267B2A",
"r  c #34742A",
"t  c #3A7C2C",
"y  c #357A29",
"u  c #2D7D31",
"i  c #317D30",
"p  c #407C2E",
"a  c #00812E",
"s  c #1C8028",
"d  c #16832A",
"f  c #1A8230",
"g  c #2D8125",
"h  c #238129",
"j  c #2C832A",
"k  c #318126",
"l  c #34862C",
"z  c #3A862D",
"x  c #35892D",
"c  c #3C892E",
"v  c #2A873B",
"b  c #388938",
"n  c #32912C",
"m  c #428B2F",
"M  c #42852B",
"N  c #448C31",
"B  c #4A8E31",
"V  c #4D9033",
"C  c #4D923B",
"Z  c #4E9834",
"A  c #539334",
"S  c #5C9636",
"D  c #5C9A37",
"F  c #5E9A39",
"G  c #5B9539",
"H  c #50882E",
"J  c #6F9026",
"K  c #77972B",
"L  c #659138",
"P  c #649C3A",
"I  c #6A9E3B",
"U  c #649537",
"Y  c #779E38",
"T  c #5EA63B",
"R  c #64A33B",
"E  c #6DA13C",
"W  c #6FA93F",
"Q  c #73A43E",
"!  c #76A73F",
"~  c #528D4F",
"^  c #4A9040",
"/  c #4E9145",
"(  c #699E45",
")  c #639C45",
"_  c #6CA945",
"`  c #6BA641",
"'  c #76A740",
"]  c #7AA641",
"[  c #75AA43",
"{  c #7CAB42",
"}  c #7AAA4A",
"|  c #7FB344",
" . c #78B247",
".. c #7AAD52",
"X. c #AA9A05",
"o. c #B4AB1E",
"O. c #96AA39",
"+. c #91A629",
"@. c #A5AC38",
"#. c #B8B539",
"$. c #B7AA27",
"%. c #DDAA00",
"&. c #E3B300",
"*. c #C7BA38",
"=. c #D1BA3A",
"-. c #B7C137",
";. c #CFC200",
":. c #D6C70E",
">. c #EBD900",
",. c #FED500",
"<. c #FFD800",
"1. c #F8D30F",
"2. c #F5C61A",
"3. c #F5CA1D",
"4. c #F9CD1E",
"5. c #F3C316",
"6. c #FDD41E",
"7. c #FFD916",
"8. c #EBCB1E",
"9. c #F8E800",
"0. c #D8C12A",
"q. c #DAC336",
"w. c #D8D235",
"e. c #ECCD25",
"r. c #EBCC2C",
"t. c #E5C524",
"y. c #F5CD22",
"u. c #F8CD20",
"i. c #F5D225",
"p. c #FAD323",
"a. c #FFD923",
"s. c #F3D52B",
"d. c #F4DC2D",
"f. c #FBDC2B",
"g. c #FCD42B",
"h. c #E7CA31",
"j. c #F3CE34",
"k. c #EAD433",
"l. c #FFDA33",
"z. c #FFDC38",
"x. c #F8D539",
"c. c #EAD72F",
"v. c #FFE526",
"b. c #FFE42B",
"n. c #F8E62E",
"m. c #FFF12A",
"M. c #E9E238",
"N. c #F4E433",
"B. c #F4E936",
"V. c #FCEC34",
"C. c #FBEE3B",
"Z. c #F6E534",
"A. c #FFFA3C",
"S. c #82AE44",
"D. c #81AF49",
"F. c #85B245",
"G. c #8AB347",
"H. c #84B34B",
"J. c #8EB649",
"K. c #86B94B",
"L. c #8CBA4C",
"P. c #8AB947",
"I. c #90B74A",
"U. c #95BC4B",
"Y. c #99BE4D",
"T. c #92B546",
"R. c #8CB352",
"E. c #8EBD51",
"W. c #84B055",
"Q. c #94BC54",
"!. c #9ABE53",
"~. c #91BD5A",
"^. c #A6B844",
"/. c #B2BF4C",
"(. c #D7B24F",
"). c #9CC14E",
"_. c #96C14E",
"`. c #9DC153",
"'. c #9CC15B",
"]. c #94C056",
"[. c #ACC24B",
"{. c #BCC34A",
"}. c #A1C450",
"|. c #A3C55B",
" X c #AAC651",
".X c #A8C866",
"XX c #C9CB49",
"oX c #D6CB44",
"OX c #DDD046",
"+X c #ECD343",
"@X c #E2D14A",
"#X c #F2D742",
"$X c #FBD95C",
"%X c #FDDA55",
"&X c #FFE55D",
"*X c #F6D867",
"=X c #FBDD77",
"-X c #FADE82",
";X c #FDE384",
":X c #F9E489",
">X c #FAE29B",
",X c #FBE296",
"<X c #FBE5A4",
"1X c #FAE5AB",
"2X c #FBEBBE",
"3X c #FBE8B5",
"4X c #F9F2BB",
"5X c #FCEDC5",
"6X c #F9EBCA",
"7X c #F3E9DA",
"8X c #FCF1D5",
"9X c #FCF2DC",
"0X c #FBF9DB",
"qX c #FDF5E5",
"wX c #FDF9EC",
"eX c #FCF7EB",
"rX c #FDFBF5",
"tX c #FFFEFD",
"yX c white",
"uX c #FFFFFE",
"iX c #FFFFFE",
/* pixels */
"                                                                      =                             ",
"                                                                = c ! K.x                           ",
"                                                          = j P F.U.S.[ | =                         ",
"                                                      h V [ L.J.! m = z U.| =                       ",
"                                                * m R F.U.).I.h 1 G F.Y.G.U.W                       ",
"                                          rX&X,.| U.}.}.U.U._.{ J.Y.S.S = A U.D                     ",
"                                    uXuXuXuX6X,.OX_.Y.U.U.U.Y.`.S.j = c ! T.}.U.V                   ",
"                              q.<.;XuXuXuXuXuX:X,./.L.).U.U.U.).F.P S.Y.S.D [ ).U.c                 ",
"                          g ; O.z.,.3XtXuXuXuXeXa.8.} Y.Y.Y.U.U.Y.`.).P.e s 2 { }.L.j               ",
"                      h V W J.K.q.f.i.eXuXuXuXuX2X,.*._ ).U.U.Y.U.U.).F.d N j S U.`.L.N             ",
"                ; x R F.U.).).U.Q.+X,.-XuXuXtXuXuX=X,.O.L.).U.Y.U.Y.Y.Y.S = = Q }.U.Y._ ^           ",
"          = j F F.U.).).Y.U.U.`.~.@.l.,.5XuXtXtXuXqX,.r.J.U.Y.U.Y.U.U.Y.I.Q { Y.P.E C b 8           ",
"      d m W P.Q [ Y.Y.U.U.U.U.!.!.a 0.7.x.rXuXuXuXuX1X,.oXL.Y.Y.Y.U.U.Y.`.Y.F.D k > i w 7 >         ",
"  l F F.U.}.E - - A U.U.Y.!.U.Y.U.f J x.,.,XuXuXuXuXuX$X,.[.I.Y.Y.Y.Y.I.Q B < 0 7 6 6 : < Z B       ",
"  x P.}.U.U.A j c h S.`.`.|.!.U.U.A ; $.l.,.8XuXuXuXuX8X,.+X!.].I.J.I z < + w u b j B E P.).!       ",
"  s P _.U.Y.E = j d S.`.'.!..XI.Y.Q a m h.,.$XtXuXrXuXuX<X,.;.+.Y * o + : 8 ^ G W.Q.).).I.I.F.      ",
"  9 g P.Y.U.U.I m E Y.}..X.X|.Y.Y.T.M ; +.l.,.1XuXuXuXuXeX3X6X(.%.$.6 N P { '..X.X!.{ P z m P.      ",
"  k : U _.U.Y.Y.U.`.U.{ ( !.Y.U.Y.Y.O.l O =.f.<.8X7X7XuXuXuXuXqXg.7.T.J.Y.Y.U.W.( x - = a A _.m     ",
"  9 9 h G.Y.U.U.U.[ N = j J.Y.U.Y.U._.L.A K t.o.X.%.&.9XuXuXuXuX=X,.XXE.!.Y.A O = j A Q T.)._.A     ",
"  > k < S U.Y.S.2 v C ! Y.U.U.Y.`._.J.{ I 8 O $ $ =.,.<XuXrXuXuX,X,.XX~.|.}.I A [ J.U.I.! V ! P     ",
"  z 9 9 8 F.).G.) R.`.U.! V G.G.! U y X X g V E _ XX,.:XuXuXuXuX3X,.@X'.}.U.I.U.T.] A j = * P E     ",
"* R Q + 8 A U.`.|.I.E z - 8 M y X O e A Q F.T.}.Q.XX,.$XtXuXtXuX8X,.+X`.U.U.I.A 1 = = c P [ U.!     ",
"# j F.H : h H.|.F.= * 6 7 > * j S ! J.U.U.).U.Y.J.[.6.p.wXuXtXuXeX6.s.G.Y.Y.U.j c I { I.Y.Y.`.K.    ",
"7 - U S.+ w ) `.I.' L > z P { I.U.).).`.U.U.U.Y.U.).x.,.9XuXtXuXrX%X,.O.U.Y.U.G.I.Y.).).Y.Y.).L.h   ",
"7 9 2 S.U u b { ).U.L * V Y.Y.Y.U.[ S E U.Y.U.Y.U.U.k.,.5XuXuXuXuX=X<.@.H.U.U.).U._.G.D D F.)._.N   ",
"9 k + F R.w < V I 7 o 0 l J.Y.Y.E = h = G Y.Y.U.).L.oX<.1XuXuXuXuX<X<.#.[ ).U.U.Y.J.z 1 s h F.`.V   ",
"  9 9 v J.I X k $ 3 z 0 h S.Y.I.l l z z h G.Y.U.U.K.#.<.-XuXuXtXuX2X,.*.[ ).U.U.).Q 1 c z h D ).F   ",
"    g e G G.9 3 5 4 l q 2 ' }.G.l l x z h S.).Y.U.J.O.<.$XrXuXtXuX8X,.h.[ ).U.U.Y.P h l x j A ).I   ",
"    9 k - S.Y . 5 5 l r : I ).U.B s z j c T._.Y.Y.T.Q i.6.wXuXuXuXwX6.i.T.U.Y.U.).{ , l z = E }.{   ",
"      k > B J.L G & l y < A U.).F.z h x ! ).U.U.U.Y.I h.,.8XuXtXuXrX$X,.[.I.Y.U.U.Y.P h h A U.).L.  ",
"      9 l : [ }.S.q w z 0 c I.U._.I.{ J.).).Y.Y.Y.}.` q.,.2XuXtXuXuX:X,.XXK.Y.Y.U.U.U.P.G.)._.F.[ h ",
"        9 8 N U.}.] : z q j G.).U.).}.).T.F.I ! Y.Y.| *.,.<XuXuXuXuX1X,.XXR.Y.U.Y.).).Y.G.R m j =   ",
"        7 k 2 E { B & z r 2 { )._.U.{ P B j O V Y.Y.L.XX,.-XuXuXtXuX5X,.OXL.Y.`.U.F.I N z P S.N     ",
"          8 9 l : $ 4 l r - Q U.D m 2 = - m I G.).U.H./.,.%XuXuXuXuX9X,.k.I.G.I B m U S.U.I.F.c     ",
"          9 g 3 5 5 & l t : P U.j , V E P.U.U.{ | _.[.{.d.f.4X0XeXuXrXz.1.U l P S.I.U.| F j =       ",
"            9 0 & 4 % j t > V U.{ P.U.I.S.P b = -.M.N.d.c.c.>.>.N.:X8X*X:.J.J.U.F.D j =             ",
"              3       j z q l I.U.! D j O v v #.C.N.e.e.y.y.j.j.8.>.9.XX .| F x =                   ",
"                      0 z q 2 G.S.O = l ` ..H.M.B.s.6.a.p.a.a.a.i.#XV.w.l a                         ",
"                      4 c r - ] I.D { U.'. XM.s.N.B.n.p.p.p.p.g.n.B.V.s.                            ",
"                      % c t : I ).).|.'.I.M.Z.y.i.d.N.N.Z.Z.Z.N.B.d.a.4.                            ",
"                      % x t : G Y.H.} b +.M.B.s.2.2.u.3.p.y.i.3.p.u.s.                              ",
"                        s A p d A C ( } ^.g.Z.B.f.d.p.y.i.s.d.d.s.e.C.B.                            ",
"                        : A ] P R.Q.U.K.E t.v.b.N.N.N.N.N.d.d.i.u.y.N.A.                            ",
"                        4 z I.!.E.R x 1       2.4.y.p.y.u.3.u.y.d.B.B.b.                            ",
"                        & n A m f             d.p.2.i.i.d.d.N.N.N.d.p.4.                            ",
"                          ~                   A.d.2.p.y.p.i.i.3.3.4.a.                              ",
"                                            s.V.B.f.p.u.4.4.6.i.d.B.N.                              ",
"                                              m.d.Z.N.N.d.N.N.N.N.b.a.                              ",
"                                              p.2.v.v.b.b.b.b.b.a.2.                                ",
"                                                    5.4.3.4.3.2.                                    "
};
