/* XPM */
static char *_25e5d541cb1461d98402ddcffa36670VsvTv48yk6DoHf7Q[] = {
/* columns rows colors chars-per-pixel */
"50 50 183 2 ",
"   c None",
".  c #AC3B36",
"X  c #B53F39",
"o  c #A7443C",
"O  c #AD453D",
"+  c #AD483F",
"@  c #B1443C",
"#  c #BB463B",
"$  c #B3483F",
"%  c #8C5A4C",
"&  c #AE4B42",
"*  c #B24D43",
"=  c #BB4B42",
"-  c #A35247",
";  c #AE5147",
":  c #A4564A",
">  c #AF5549",
",  c #AE594D",
"<  c #B35146",
"1  c #BB5246",
"2  c #B3554A",
"3  c #BB554A",
"4  c #B1594D",
"5  c #BB5A4C",
"6  c #AD5D50",
"7  c #B35E51",
"8  c #BC5E51",
"9  c #8A6756",
"0  c #906152",
"q  c #916E5D",
"w  c #9B6F5E",
"e  c #98705F",
"r  c #AC6354",
"t  c #AC695A",
"y  c #B36355",
"u  c #BC6354",
"i  c #B46758",
"p  c #BB6758",
"a  c #B56B5B",
"s  c #BB6B5B",
"d  c #A3715F",
"f  c #B4705F",
"g  c #B9705F",
"h  c #957462",
"j  c #9C7461",
"k  c #967966",
"l  c #977B68",
"z  c #9D7D69",
"x  c #A87564",
"c  c #A37966",
"v  c #AB7966",
"b  c #A57E6A",
"n  c #A97D6A",
"m  c #B47261",
"M  c #BB7362",
"N  c #B67967",
"B  c #BC7966",
"V  c #B37C6A",
"C  c #BB7D6A",
"Z  c #C14E41",
"A  c #C35446",
"S  c #CA5044",
"D  c #C35648",
"F  c #CA574A",
"G  c #C35A4B",
"H  c #CB5C4D",
"J  c #C35F51",
"K  c #C46656",
"L  c #C36354",
"P  c #C86555",
"I  c #CB6354",
"U  c #C46857",
"Y  c #C56A5A",
"T  c #C26E5D",
"R  c #C26D5C",
"E  c #CB6E5E",
"W  c #C3715F",
"Q  c #C17564",
"!  c #C37563",
"~  c #C87262",
"^  c #C17966",
"/  c #C57D69",
"(  c #CC7D6A",
")  c #9C816C",
"_  c #A4826D",
"`  c #AC826E",
"'  c #B3836F",
"]  c #BB816E",
"[  c #BC836F",
"{  c #BC826E",
"}  c #A38671",
"|  c #AA8671",
" . c #AE8D78",
".. c #B58673",
"X. c #BA8772",
"o. c #BD8571",
"O. c #BD8772",
"+. c #BD8671",
"@. c #B38A75",
"#. c #BC8973",
"$. c #BE8974",
"%. c #BC8974",
"&. c #B08F79",
"*. c #BD8D78",
"=. c #BF8E78",
"-. c #A6967E",
";. c #AA957D",
":. c #B3937C",
">. c #BD927B",
",. c #BB937C",
"<. c #C2826D",
"1. c #CA826E",
"2. c #C18671",
"3. c #C98671",
"4. c #C28A74",
"5. c #CF8974",
"6. c #C08D78",
"7. c #C18E78",
"8. c #CB8E78",
"9. c #D88E79",
"0. c #C1917B",
"q. c #C5977F",
"w. c #C3927C",
"e. c #B49B83",
"r. c #BE9B83",
"t. c #B6A087",
"y. c #BAA087",
"u. c #B3A289",
"i. c #BBA68C",
"p. c #BCA48A",
"a. c #BCA88E",
"s. c #B9AD92",
"d. c #BAB296",
"f. c #BCB79B",
"g. c #BCB99C",
"h. c #C39780",
"j. c #C19880",
"k. c #C49880",
"l. c #C49C84",
"z. c #CA9881",
"x. c #C5A48B",
"c. c #C8A48B",
"v. c #C5A98E",
"b. c #C8AA8F",
"n. c #C9A98E",
"m. c #C4AC91",
"M. c #CAAF94",
"N. c #C9AB91",
"B. c #C7B396",
"V. c #CBB296",
"C. c #C9B195",
"Z. c #C3B699",
"A. c #C9B398",
"S. c #CAB699",
"D. c #C4BA9D",
"F. c #CCB99B",
"G. c #CCBC9E",
"H. c #D0B99C",
"J. c #C9BFA0",
"K. c #D1BEA1",
"L. c #C5C2A4",
"P. c #CBC3A5",
"I. c #CAC7A8",
"U. c #CDC9AA",
"Y. c #D1C6A6",
"T. c #D0C7A8",
"R. c #D2CBAC",
"E. c #D5D0AE",
"W. c #D6D1B0",
"Q. c #D7D7B5",
"!. c #D6D5B4",
"~. c #D6D4B3",
"^. c #D9D6B5",
"/. c #D7D9B6",
"(. c #D8D8B6",
"). c #D7D9B8",
"_. c #D9DEBA",
"`. c #DADCBA",
"'. c #DBE2BE",
"]. c #DCE2BF",
"[. c #DCE3C0",
"{. c #DCE4C1",
"}. c #DCE3C0",
/* pixels */
"~.~.~.~.  ~.(./.(.          W.                                                                      ",
"4 m M o.N C o.[ [ N B C o.p 7 #.o.k.    0.u g s U T M T K L L u s a s i a a y i     Y P L u K T 4 s ",
"4 2 < & < < & * & 2 < < & 4 4 * O Y     ] D 1 2 3 2 < 2 4 5 5 5 4 5 5 4 2 2 3 M   C.5 1 3 5 2 1 5 2 ",
"4 4 4 4 7 , 7 , , , , , 4 G 5 7 4 u k.  o.2 , 4 , , 4 , 4 , , , , , > 4 2 y O q.  j.T < 5 5 4 4 > , ",
", > > 4 4 4 3 5 5 5 5 3 G G 5 4 2 8 M.  N 3 4 4 2 , , 2 4 4 , 2 > 4 , > > 7 O $._.V.3 , , , 2 , 4 > ",
"4 5 5 5 G G H G G G G G G G 4 4 > p A.'.*.* 7 4 4 4 , 2 4 , , 4 4 4 4 4 , 7 $ O.}.M.2 , 4 2 , , , 4 ",
"3 D 3 3 2 2 < 2 ; > 2 A A < 2 2 ; 2 x.'.o.$ 4 2 > 2 2 , , 2 ; ; > > 2 > 2 4 O 7.{.b.5 2 4 4 7 4 4 4 ",
"r i r r r r r y y r y a t a r t r t i._.k.2 7 5 s r y p y a Q s i y y i y g < >._.F.& , , - ; > ; , ",
"P.P.G.    P.P.T.R.R.Y.G.G.T.P.U.U.R.E.E.P.x.Z.C.                    D.g.s.      ^.^.P.B.          D.",
"g a i 2 u p R B B ^ / s u s s M g ^ a M a y g s * y p y s <.  4.7 G J G D A G A 5 ! ( W 5 Y ! U ! B ",
"1 2 5 4 5 2 2 ; & & * < 3 2 < < < * 2 < ; 2 < 2 8 2 3 4 J ,   s # I H H H I H L 5 1 = D H H A H 1 A ",
"5 4 4 4 4 4 4 , 4 5 4 , 4 4 4 5 5 5 G 5 4 4 4 4 4 4 4 , 8 i ~./ Z J G G 5 D G D 3 5 H G G G G G 3 G ",
"5 > 4 2 4 4 , 4 , 4 4 2 4 , 4 4 3 G 5 4 4 3 4 4 5 2 5 4 J 2   g D G G G D H G G G G G 5 G G G G G G ",
"5 , 4 4 4 4 4 > , 4 4 4 5 4 5 5 5 4 4 4 4 4 5 5 5 4 4 5 H C   a 5 J G D D G G G G G G G G G G G G G ",
"3 5 4 4 2 > 2 , 4 < > 2 2 5 5 2 3 < 2 4 2 5 2 2 2 2 < * = o.  m # G D G G D G G H D D H H F G D D G ",
"p 4 4 < L u > + 4 ! s p K 5 5 8 p W s 4 7 J 4 > 7 p T / 9.w.  M g s u 8 8 L 8 5 8 p p 5 4 s 4 u R 3 ",
"U.I.I.I.P.R.R.J.I.W.I.J.  D.J.D.P.    f.D.G.f.g.P.  W.~.).                                    J.    ",
"] k.l.c.l.x.N.N.v.*.=.l.l.4.o.n.c.      N.! 4.4.<./ 2.^ L L T s ! Q B M M M s       1./ / ~ <.4.! 4.",
"3 * * @ 1 1 @ # Z J G G 5 3 3 1 = (     V F A 3 D G 5 5 8 u J J H 8 8 8 J J I a   C.H A 5 G 3 = H < ",
"4 6 7 7 5 G J G G G G 5 5 8 5 8 2 u     #.2 7 4 5 5 4 5 3 5 5 3 7 2 G 2 2 7 O o._.K.& 8 5 5 G H G 4 ",
"4 3 5 G D G G 3 5 G G G G G G G G L N.  C 5 5 G G G 5 5 G 5 G G G G F G , 4 & %._.S.* G G D G D G 3 ",
"4 G G G G 5 G G G G G G G G G G A L B.  %.* 4 5 5 ; > 5 5 3 G G 3 D J G 3 , * o.).H.* 4 3 G G G G G ",
"5 G 5 D J G G G G G D G G G F J D 5 N.}.4.# 5 3 , a s G D K K D U p G 5 2 7 O C _.S.* 6 6 5 8 5 J G ",
"I P H 5 J H J H H H I D 3 I H I L u n.).w.S L J u 8.8.5 J 3 p G ( 3.G 8 8 Y 1 h.  z.P $ * * O * O = ",
"    e.e.u.      l.a.r.s.s.e.              >.@.  ,.t.>.r.e.y.N.n.a.e.b       l.J.].W.r.r.y.e.i.u.v.i.",
"  o.6.4.*.C C O.7.7.Q 3.8.  B o.s           C   4.q.  [       @.C %.m B %...h.c.x.x.v.C.M.A.S.M.S.C.",
"u J 5 5 3 J J 8 3 3 J 3 3 8 J 5 8 L L u L 8 8 J 5 3 8 3 ~     N = 5 8 J 8 J 8 3 < 3 5 * * * O * O * ",
"4 4 4 , , , , , 4 4 4 , 6 , , , 4 , , , 4 4 4 , 4 4 4 2 s   ).N & 7 , , , , , , 6 , 4 4 7 7 7 , , , ",
", 2 , , , , 2 , 4 2 4 4 , 4 4 , 4 4 , 2 , 4 , 4 4 , 7 < u S.(.4.& , 2 , , , , 2 4 , , 4 , 4 , 2 > 4 ",
", , 2 , , , , , 7 3 4 4 2 , 4 4 4 , , , 2 4 4 > 2 , , 4 8 l./.' & 7 2 , 2 2 , , 4 2 2 , 4 4 4 , 4 4 ",
"5 4 , , , , , 2 2 4 4 , , , 4 4 , 4 4 7 6 4 , 7 , , 4 4 u w.  v * 7 , 2 7 7 , , , , , 6 4 , 4 , 4 4 ",
"2 < 3 8 8 8 J 5 1 2 2 8 8 3 < 2 8 2 & * 1 5 2 < 3 2 4 @ 1.T.  n = * 2 2 < & * & < 3 2 * * 2 5 5 1 4 ",
"@.| ..i C *.*.V ..,.r.t v x b q % q ) _ n h z k 9 j c w c       b _ z q z | | | b x n | | _ V N ..*.",
"                                                                                ).      H.          ",
"y * 7 f i 7 a g 7 7 6 f N s i y y 2 J.T.7 7 4 4 4 7 7 7 7 s p p 5 2 7 u 4 p 7 2._.v.< 7 2 5 8 4 5 u ",
"4 8 8 2 5 2 2 2 7 8 4 < & ; > 2 2 3 c.P.4 2 4 4 4 2 , 2 , > ; , 2 > , , , > G m   k.@ , 4 , , 4 4 2 ",
", , , , , 2 2 , 4 , , 4 7 4 4 4 7 * x.R.y , , , , 4 4 , 4 4 , 4 4 4 4 , 4 4 8 7   h.* 4 2 4 4 2 4 4 ",
"4 , 2 , , 7 , , , 4 4 4 , , 4 , 6 . x.T., 2 4 , , 2 , 4 4 , 4 , 4 , 4 , , 4 3 X.  r.O 7 , , , , , 4 ",
", , 2 , , , , , 4 , , , 4 , , 4 7 $ x.R.7 2 4 7 4 4 , 4 7 , 7 , 7 7 , 4 4 7 8 >.}.l.O 7 4 , 4 , , 4 ",
"2 2 7 2 2 2 2 2 2 2 < ; 2 4 2 2 2 @ x.R.4 O & < & & ; + & O O + & O & & < & X X.  w.* < 4 2 4 2 ; 2 ",
": - - 6 6 r y g a i i C m : r r r ; B.R.@.j j 0 j z l } ) :.,._ | b _ V V ] z.v.  N.B r , : : : a , ",
"U.L.g.d.f.D.L.  f.f.    L.I.L.g.L.I.E.~.'./.  R.(.`.).(.~.(.).).^.^.'.(._.'._.`./.~.~.R.U.I.I.U.(.U.",
"<.{ g u s a a < i 5 = 3 2.w.<.Q 1.4.4.[ 0.2.C %.$./ M u 5.    6.a ! [ [ C s M <.8.] B / <.<.{ [ [ C ",
"+ & ; 4 5 3 5 u 5 8 u u * O 2 4 < & + + O + < * & & 2 < F l.  , * ; & O < 4 2 ; + + < * & + + + & & ",
"4 4 4 4 , 4 , > 4 4 3 5 5 4 5 5 4 4 4 y 4 7 4 4 7 4 4 4 I     m < 6 4 7 4 , 4 4 7 , , 4 4 4 7 , , 4 ",
"4 4 4 4 4 4 4 4 5 4 3 G G 5 H 5 G G 5 3 5 3 5 4 4 4 4 2 K     N & 7 2 , , 4 4 , , 4 4 > 4 4 , 4 2 , ",
"5 4 5 4 4 > , 4 5 > 4 G 5 4 G 5 5 5 2 4 4 5 2 4 4 4 4 , K     B & , , 4 4 > > 4 , 4 4 4 > 4 4 , , 4 ",
"5 4 4 4 4 4 > > > > , 5 4 > 5 2 2 4 4 7 4 4 4 , , 4 4 4 3 o.  N & 7 2 4 4 4 4 4 4 4 > > 4 4 4 4 2 4 ",
"+ + o 2 2 4 s u u s u 2 2 7 4 u y 5 2 O * 8 4 2 4 * & 7 E l.  w.* u 8 8 7 8 7 8 & 4 u p u 7 u 7 8 4 ",
"m.a.u.-.:.t.S.i.y.y.i.B.m.H.K.J.F.    C.e.j.v.N.J.B.e.   .        _ j           -.:.  ,.    )     e."
};
