/* XPM */
static char *_f2c736d68544b5efdb669ebb2d3f5a4rRXwJ468C3Gk3ZAh[] = {
/* columns rows colors chars-per-pixel */
"50 50 68 1 ",
"  c black",
". c #060606",
"X c #090909",
"o c #0E0E0E",
"O c gray7",
"+ c #161616",
"@ c #1B1B1B",
"# c #1E1E1E",
"$ c #222222",
"% c gray15",
"& c gray16",
"* c #2F2F2F",
"= c #313131",
"- c gray21",
"; c #393939",
": c #3C3C3C",
"> c #434343",
", c #444444",
"< c #4B4B4B",
"1 c gray30",
"2 c #515151",
"3 c #555555",
"4 c #5B5B5B",
"5 c #5F5F5F",
"6 c gray38",
"7 c #676767",
"8 c #686868",
"9 c #6D6D6D",
"0 c #727272",
"q c #777777",
"w c #797979",
"e c #7E7E7E",
"r c #818181",
"t c #848484",
"y c #888888",
"u c gray56",
"i c #939393",
"p c #959595",
"a c gray60",
"s c gray62",
"d c gray64",
"f c gray65",
"g c gray66",
"h c #ACACAC",
"j c #B1B1B1",
"k c #B4B4B4",
"l c gray72",
"z c gray",
"x c gray76",
"c c gray77",
"v c #C8C8C8",
"b c gray81",
"n c LightGray",
"m c gray84",
"M c gray86",
"N c gray87",
"B c gray88",
"V c #E6E6E6",
"C c #EAEAEA",
"Z c #EEEEEE",
"A c #F0EFEF",
"S c #F0EFF0",
"D c gray94",
"F c gray95",
"G c #F3F3F3",
"H c #F4F4F4",
"J c gray98",
"K c #FEFEFE",
/* pixels */
"FZZFZZZFSFZZZFZFZZFZZFZZFZFZZZFZFZFZZFZFZZZFZFZFZZ",
"ZFZFZFZZSZZFFZZZFZZFSZFZZZZFFZFZZZZSSZFZFZFZZFFZFZ",
"ZFZZFZFZFZZFZZFFFZZAFZZFFFZZZFZZZFZFFZZZZFZZZZFZZZ",
"FZZFZZFZZFZZZFZZZZFZZFZZZZFZFZZFZZFZZFZFZZZFZFZFZF",
"ZZZFZSZFZZFZFZZZFZZFZZFZZFFZZZZFFZZZFZZZFZZFFZZZFZ",
"FFZZFZZZFZZFZZFFFZZFZFZZFZZZZFFZZZFZCZHJFHHFZZZFZF",
"ZZFZZZZFFZZZFZFZZZZZZZFFZZZFZFZZZZCFJHNswrvHFZFZZZ",
"ZFZZFFZZZZFZFZZZZFFZFZZZZFZFZZFZZHJFcr&    vHZFZFZ",
"FFZZZZFFZFZFFZZFFZZZZFFZFZZZFZZHJVh6     = tHFZZZF",
"ZZZFFZZZZZZZZZFZZZFFAZZZZZZZFHHmp-     79  qFFZZFZ",
"FZFZFZFZZFFZZFFZZFZZZFFZZZHJZcq     #qzJa  pHFZFZZ",
"ZZFZZZZZZZFZFZZZFZFZZZCFJHBh<     >imHJF7  jJZFZFZ",
"FZFZFZZFFZFZZFZFZZZZCHJFby=     6kVJHCZV; +bJCFFZF",
"FZZZSZZFZFZZFZFZZZZHJCk9     %yvZJHFZZJn  >BHZZZFZ",
"FZFFFFZZSZFFZZZZZJJMa1     1fMHJZHZNFZJk  8FFZFZZF",
"ZZZZZZZSFZZZZZHJFcr#     0lCJHZZJn<iJCJi  uHZZZZZZ",
"FZFZZZZFFZZFHJVj4     -ynFJFZZHFs 0ZZZF8  jKZZZFZF",
"ZFZZFFZZZFHFMp*     3gVJHFZAFFc2 uHHZFV>  vJCFFZFZ",
"FZZFZCZHHZxq     @qxZJFZZCFJNr  sHFZZJn  ;BHZZZFZZ",
"ZZFZZJJNf3  .  >amHJFZZZZJFg=  gJZZFCJk  6FFZZFZFZ",
"ZFZFJby-     7kVJJFCZFCHJv8   jJFZZZCJp  yJZZZFZZZ",
"FZFZy     $ycZJHZCZZZZJCu    lJZZZFZFH0  hKCFZZZZF",
"ZFHa  @ <sNHJFZZZFZZHHz> O  xJZZFZZZFV,  vJZZZFZFZ",
"ZFC3 $#hHKJZCCZZZZFJM0  % XbJZZZZZFZHm# =BHZFZZFZF",
"ZFFw &%4ycVHHHFZFJZf  o% %nJZZZFZFFCJl  5AFZFZFZZZ",
"ZCHn*     >ucVHJFv6  @% ;MJCFZFZZZZZJa  rJZZZZZFZF",
"ZFZHMy,      ,ixu  $o$ <NJCFZFZZZFZFHq  gJCFZFFZFZ",
"FZZZHHVly:        $ # 3VHCFZFZFZFZZHC2  cJZFZZZZZF",
"ZFZZZZHJHBzt= $ @+ + 6CHCFZFZFZFZFCHn% *BFZFFZFZFZ",
"FZFZFZZZFHJHC9 #  O 9ZHZZZFZZZFZFZZJz  3FFZZZZZFZZ",
"ZZZFZZZZZZZCKk #    NJCFZZZZZFZZZZZJs  rHZFZFZFZFZ",
"FZFZFFZZFZFFFN# oo ;VFZZJFZZFZFZFZFFe  fJZZFZFZZZF",
"ZFZZZZZZFZZZFF7 @O 5FZFHlBKZZZZFZZFC3  cJZZZFZFZFZ",
"FZZFFZFZZZFZZJg #@ rHZHs 1mJZZFZFZHm& %NHZFSZFZZZZ",
"FZFZZFZZFFZZZHn  % sKFu $ olJFZZZZJx  2ZFFZZZZAFZF",
"ZFZZZZFFZZFZZFZ4 * xJw $    iFHZZZJf  eFZZFZFZFZFZ",
"FZFZZZZZZFZFZZHs $ vq $ 7, + 6MJZZFr  dJZZZFZSZFZZ",
"ZZZFZFZFZZFZFZJc  *> # rHB7 @ #zJHC4  xJZZFZFZFZFZ",
"FZZZAZZZAFZZZZFC1 % + pHFFFa  O pJV& &MHZFZFZFZZZF",
"ZFZFFZZFFZFZFZFHa .  fHFZZFJz# * wa  1CFZZZZFZFZFZ",
"FZFZFZZAZFZFZFZFVq :kJZZSFZCJM4 &  - tHZZFZFZFZZZZ",
"ZFZZZFZFZZFZZZFZFZmVHZZFZFZFCJCt    1BHZFZZZFZFZFZ",
"FZFZFZZZFFZFZFZFZFHHFZFZFZZZZCFHxtwdVHZZZFZFZZZFZF",
"ZZZFZZZFZZZZFZZZFZZZZFZZZZZFZFZFHJHJFFFZZZFZFZFZFZ",
"FZZZZZFZZFZFZZZFZFZFZFFZFZFZFZZZZZZZZFZFZFZFZFZZZZ",
"ZFZFZFZZZZFZFZFZFZZZFZZFZFZZZFZFFZFFFZAZZZFZFZFZFZ",
"FZFZFZZZZFFZZZZFFZZFZZZZFZFZZZZZFZZZZSZFZFFZZZZFZF",
"ZZFZZZFFZZZZFFZZZZZZFZZZFZFZFZFZZZZFZFZZZFZZFFZZZF",
"ZFZZZZZZZZFZFZFZFZFZZZZFZZZFZFZFZFZZFZFZZZFZZZFZZZ",
"FZFZFFZFZFZFZZZFZZZFZFFZFZFZZZFZFZFZZZZFZFZFZFZFZF"
};
