/* XPM */
static char *e370ebf4a78a48d1c92041ae4b1b3ba4JCkRyZKcUqlQSqRM[] = {
/* columns rows colors chars-per-pixel */
"50 50 73 1 ",
"  c #1F1D1E",
". c #242322",
"X c #282725",
"o c #292728",
"O c #2C2B2B",
"+ c #353434",
"@ c #383637",
"# c #393836",
"$ c #393738",
"% c #3C3B3B",
"& c #403E3F",
"* c #42413F",
"= c #413F40",
"- c #444344",
"; c #484647",
": c #4A4947",
"> c #494748",
", c #4C4B4B",
"< c #504E4F",
"1 c #52514F",
"2 c #514F50",
"3 c #545353",
"4 c #585656",
"5 c #595856",
"6 c #595758",
"7 c #5C5B5B",
"8 c #605E5F",
"9 c #62615F",
"0 c #615F60",
"q c #646363",
"w c #686666",
"e c #6A6967",
"r c #696768",
"t c #6C6B6B",
"y c #706E6F",
"u c #72716F",
"i c #716F70",
"p c #747373",
"a c #787676",
"s c #7A7977",
"d c #797778",
"f c #7C7B7B",
"g c #807E7E",
"h c #82817F",
"j c #817F80",
"k c #848383",
"l c #888686",
"z c #8A8987",
"x c #898788",
"c c #8C8B8C",
"v c #908E8E",
"b c #92918F",
"n c #918F90",
"m c #949393",
"M c #989697",
"N c #9A9997",
"B c #999798",
"V c #9C9B9B",
"C c #A09E9E",
"Z c #A19FA0",
"A c #A4A3A3",
"S c #A8A6A7",
"D c #A9A8A6",
"F c #A9A7A8",
"G c #ABABAA",
"H c #B0AFAD",
"J c #B1B0AE",
"K c #B1AFB0",
"L c #B4B4B3",
"P c #B8B7B5",
"I c #B9B7B8",
"U c #BCBABA",
"Y c #C2C1BF",
/* pixels */
"sp55th:uikt7fkq6qi78d3if,is44gy,ptfqppptqqt6rd6ti6",
"bfsUDYhsSAjtxAnfdnptnjmjyVgkAHPakAAxqmVG6kVtiBjjkd",
"s81zss5:q7;O+0r,$tt76O=3=i86uhg8-qq,.=7p>>rqq2O>,=",
"uu87V9hAVAGximGc0BFFn&8jttj6eM9hGVGVmicAVrxKKd-rfd",
"151*h1uhknVd1uk76i0if&=<9*9#1g:9kxccc7pfq3ipit-=>2",
"bhsstuu1nccp9hb9pct6dti=ehgguug9qmkmtqkktpmi7dtt>6",
"HDVhsDbtVnchsNAktMd6y0p3gDPJhsDhqVmVppVVftcd7ttd6r",
"*uuX:9**5781-391@02=6&3=&*u5O1e:%377q+q7,%02%2--==",
"mmcbf8mqtkufuszNtAGmAVtk5NMVca7m7qcpfttmmpVGVAmqct",
"9hhh6,q,,,,3**su-p7pt37q99wsk1,p733%3-,pp,ttpqqqr>",
"Vs1ggftkmshNzbz:cA7kftAV9bh7ffl<cmkfVkkmqfmttpfmni",
"p7-4q3-fmu3khbf1fk7pt7mf5u9173w+fct7kkmf>fcqqfqcd7",
"pck3ss3;ps-zss5s7qccf,pq3cft8sf7,fq3kkk,pt3fmc,dd0",
"bcp7Vmf7fb3NNb5fc7ccmtpd6Cmt7Cbi3ck7cVc3mfqccm7pt7",
"8,O3t=3fsqO,shusp7q77pqt732+2q=7pkq+,pkfqqft3qttiq",
"Dc,MSkkMAbzkHDJk7AGmqAAAGVm;cLkfVAApmLAGcqAccpAAFZ",
"qr+2p=@ripq=tii7-,t3+-pqtqt+-t3%7qj0=tjt2,qq,%-ttp",
"mZq2jGB0jmnp7rditqVAk7tqfccqqcmmtkcmp3rtj72ZVc3k3t",
"jjipcFB2jVBk&7itqqcmcpktkmkfkcVm7ncVk=0tpq7Vmm7Vtk",
"i=6p06q-6r03&0qq-3pq3,q37q-37,t3+qqq,>iq2,3qt3-pqq",
"FijkinZpqpr7xBVZpfGGmtcGVGfcktGGqtft7kFcVpfZLxtVAA",
"i=23>ri2,23=r7tp--3,77q7tq%33-tqq%22-7tqt2%q,q-77t",
"i3ifpt0ijixnirkxAAk7kAm7cf7tkfp3kftkcptcnVmk,mVmtk",
"726233=3p=rm-2dttq7,qtq7pq-33,,->f>qc3,ti7fr-7pq3t",
"nBj=pq,vpfcc7kVcc,kkefbz7cAc,qt3fpkmc7fVmkqdxqpVc7",
"ijy0dd4wkkpqtfd3p7fqqtsh7fpq7pf3fkfpqpkt7ptqtpqtp3",
"jcdZDHcsVVk7VVmtpmfecffktkkpGLPfpAmk7cAmqjmtpmffcp",
"di2dky83qq3+,qtq%pq3t+-3,tt3fzu3,q77+%qf7=qq7q+3,-",
"uu5uVugNVAVk7cVc3VAAz#qhusf5qVpkGmmVcqcVc7mFAk+3fk",
":1**f49zmmmk,fcq3pffu+3-1,5-%f3qkkVmx7fjt-fjpp%,-3",
"mbhuuu97kmctqkkqpkq3sqq#pzzhtut53jmmt7jxpqkq3ptp-q",
"HCAcuDbecAVtkmVctVf-ppu5sADDceJbpmcmpkmVjfmi,tpt3p",
"e5e+%73O3qq,>3q,+t,,-3--%3qq%%q-+3qq7->t>+q,,3--,%",
"hcCmftfppdpfiimZfcVGVVtk7VmVAqqVqpppftpAVqAGAAmtjt",
"ehus73r,7,,7>,tr7qqfp73t,fppf73q,33,7-,tq7t7pp3qq,",
"vl9stpaamcdckmc7fAqffqAmqkkqqkf3mVcpckxm6mm7pfqAmp",
"f3>q77,fkfqccmd,pm7pp3Vk3tq-7t3,pcf3fmmf3qffttqfp7",
"jpi0tz3,fr>xkp7rt3pkf7qt7pcq3ff7-tf-kcj>pq3fmf3tf7",
"cngqcVd,Bk2cBctckqmmcfpppkVp7mmqqkm7mVm3cmqfAmqct7",
"3,+1p=7fiio7fx6rtqp773f777-+qt%qffq.7fcq3ttp3qq7pq",
"Lk-mLkpGZFkrIIZBqAAktGGVGGc,mLcpAAKpkIVLV7GmkpVAAA",
"6r%=i,%2qdt>0pp7-3q3%-qq7qt+%p,%7qpq,qpp7+7p7+,7qp",
"cZd2VVcikmmd3tjipqVmkqktkcVp3ABmqccmp3fpftqmVptk7p",
"mktqmZnqcmkj20riq7mVfpk3kkfftcAm3Vcmk-7qqt7fmktcqk",
"q>6t2rq+0i62>r7r,,pp,3pqqt-3i,t0+3tq,-7q3-tqf7%f3q",
"mpkmqVZi7ji0pAZBtfVAkpmGVApfVqmVf,kf3fGmAqkmGcqmAA",
"t-,,;ii6&-623qdt,7q,t377fq,,,,ttq=33-7qtf-,q7t77qt",
"t7ffkr6im0jVj7xcmAk+VVcqmqpf7cp,pmttAk3ccVcc%kAcqc",
"q,7,>2%3q2rp,7qdi7q26p77rq33-7,$737pp-qqpf7qq7ptq7",
"Vkkqti7kjfmmqkmmxixdpmcxtmBk6ii0kfjmm7ccmktfftkmkq"
};
